<?xml version="1.0" encoding="utf-8"?>
<!-- Generator: Adobe Illustrator 16.0.4, SVG Export Plug-In . SVG Version: 6.00 Build 0)  -->
<!DOCTYPE svg PUBLIC "-//W3C//DTD SVG 1.1//EN" "http://www.w3.org/Graphics/SVG/1.1/DTD/svg11.dtd">
<svg version="1.1" id="Layer_2" xmlns="http://www.w3.org/2000/svg" xmlns:xlink="http://www.w3.org/1999/xlink" x="0px" y="0px"
	 width="500px" height="35px" viewBox="0 0 500 35" enable-background="new 0 0 500 35" xml:space="preserve" preserveAspectRatio="none">
<polyline fill="none" stroke="#525252" stroke-width="3" stroke-miterlimit="10" points="1.089,17.398 69.667,27.352 100.769,8.58 
	172.193,11.422 240.613,5.738 307.318,17.105 378.742,5.738 453.812,28.475 499.274,17.417 "/>
<circle fill="#525252" cx="453.92" cy="28.475" r="6.005"/>
<circle fill="#525252" cx="379.357" cy="6.006" r="6.006"/>
<circle fill="#525252" cx="307.506" cy="16.463" r="6.006"/>
<circle fill="#525252" cx="240.363" cy="6.006" r="6.006"/>
<circle fill="#525252" cx="172.061" cy="11.553" r="6.006"/>
<circle fill="#525252" cx="100.82" cy="8.926" r="6.006"/>
<circle fill="#525252" cx="69.527" cy="27.352" r="6.006"/>
<path fill="#525252" d="M0,11.234v12.012c3.316,0,6.006-2.689,6.006-6.006S3.316,11.234,0,11.234z"/>
<path fill="#525252" d="M493.994,17.24c0,3.316,2.689,6.006,6.006,6.006V11.234C496.684,11.234,493.994,13.924,493.994,17.24z"/>
</svg>
