<svg xmlns="http://www.w3.org/2000/svg" xmlns:xlink="http://www.w3.org/1999/xlink" version="1.1" id="Layer_1" x="0px" y="0px" width="500px" height="500px" viewBox="250 200 500 500" enable-background="new 250 200 500 500" xml:space="preserve"><style>.style0{fill:	#F7DF1E;}</style><rect x="250" y="200" width="500" height="500" class="style0"/><path d="M585.873 590.627c10.071 16.4 23.2 28.5 46.4 28.531c19.468 0 31.904-9.729 31.904-23.174 c0-16.111-12.777-21.817-34.206-31.19l-11.746-5.04c-33.905-14.444-56.429-32.54-56.429-70.793c0-35.238 26.849-62.064 68.81-62.064 c29.873 0 51.4 10.4 66.8 37.619l-36.587 23.492c-8.056-14.444-16.746-20.135-30.238-20.135 c-13.762 0-22.484 8.73-22.484 20.135c0 14.1 8.7 19.8 28.9 28.532l11.747 5.031c39.92 17.1 62.5 34.6 62.5 73.8 c0 42.302-33.229 65.477-77.856 65.477c-43.635 0-71.825-20.794-85.619-48.048L585.873 590.627z M419.897 594.7 c7.38 13.1 14.1 24.2 30.2 24.167c15.436 0 25.174-6.04 25.174-29.523V429.58h46.985v160.397 c0 48.65-28.524 70.793-70.159 70.793c-37.619 0-59.405-19.468-70.484-42.916L419.897 594.698z"/></svg>