<svg xmlns="http://www.w3.org/2000/svg" xmlns:xlink="http://www.w3.org/1999/xlink" xmlns:sketch="http://www.bohemiancoding.com/sketch/ns" width="298px" height="420px" viewBox="0 0 298 420" version="1.1"><style>.style0{fill:	none;fill-rule:	evenodd;}.style1{fill:	#131313;}.style2{fill:	#1572B6;}.style3{fill:	#33A9DC;}.style4{fill:	#FFFFFF;}.style5{fill:	#EBEBEB;}</style><title>Slice 1</title><description>Created with Sketch (http://www.bohemiancoding.com/sketch)</description><defs/><g id="Page 1" class="style0"><g id="Layer_1"><path d="M233.164 15.7 L208.476 15.7 L234.15 43.5 L234.15 56.8 L181.268 56.8 L181.268 41.3 L206.937 41.3 L181.268 13.4 L181.268 0.1 L233.164 0.1 L233.164 15.7 L233.164 15.7 Z M170.786 15.7 L146.098 15.7 L171.771 43.5 L171.771 56.8 L118.889 56.8 L118.889 41.3 L144.561 41.3 L118.889 13.4 L118.889 0.1 L170.786 0.1 L170.786 15.7 L170.786 15.7 Z M109.018 16.3 L82.378 16.3 L82.378 40.6 L109.018 40.6 L109.018 56.8 L63.444 56.8 L63.444 0.1 L109.018 0.1 L109.018 16.3 L109.018 16.3 Z M109.018 16.3" id="Shape" class="style1"/><path d="M27.142 386.3 L0.071 82.7 L297.521 82.7 L270.425 386.2 L148.614 420 L27.142 386.3 Z M27.142 386.3" id="Shape" class="style2"/><path d="M148.798 394.2 L247.225 366.9 L270.382 107.5 L148.798 107.5 L148.798 394.2 Z M148.798 394.2" id="Shape" class="style3"/><g id="Group"><path d="M148.8 217.5 L198.1 217.5 L201.5 179.4 L148.8 179.4 L148.8 142.1 L148.9 142.1 L242.2 142.1 L241.3 152.1 L232.1 254.7 L148.8 254.7 L148.8 217.5 ZM148.8 217.5 " id="Shape" class="style4"/><path d="M149 314.2 L148.9 314.2 L107.4 303.1 L104.7 273.4 L84.6 273.4 L67.4 273.4 L72.6 331.8 L148.8 353 L149 352.9 L149 314.2 ZM149 314.2 " id="Shape" class="style5"/><path d="M194.9 253.2 L190.4 303 L148.9 314.2 L148.9 353 L225.2 331.8 L225.8 325.5 L232.3 253.2 L194.9 253.2 ZM194.9 253.2 " id="Shape" class="style4"/><path d="M148.9 142.1 L148.9 165.3 L148.9 179.3 L148.9 179.4 L59.1 179.4 L59 179.4 L58.2 171 L56.5 152.1 L55.6 142.1 L148.9 142.1 ZM148.9 142.1 " id="Shape" class="style5"/><path d="M148.8 217.5 L148.8 240.6 L148.8 254.6 L148.8 254.7 L108 254.7 L107.8 254.7 L107.1 246.4 L105.4 227.5 L104.5 217.5 L148.8 217.5 ZM148.8 217.5 " id="Shape" class="style5"/></g></g></g></svg>