<svg xmlns="http://www.w3.org/2000/svg" xmlns:xlink="http://www.w3.org/1999/xlink" version="1.1" id="Layer_1" x="0px" y="0px" width="354.232px" height="500px" viewBox="422.884 200 354.232 500" enable-background="new 422.884 200 354.232 500" xml:space="preserve"><style>.style0{fill:	#E44D26;}.style1{fill:	#F16529;}.style2{fill:	#EBEBEB;}.style3{fill:	#FFFFFF;}</style><title>HTML5 Logo</title><polygon points="455.1,659.8 422.9,298.3 777.1,298.3 744.8,659.8 599.8,700" class="style0"/><polygon points="600,669.3 717.2,636.8 744.8,327.8 600,327.8" class="style1"/><polygon points="600,461.9 541.3,461.9 537.3,416.5 600,416.5 600,372.2 599.8,372.2 488.8,372.2 489.9,384.1 500.8,506.3 600,506.3" class="style2"/><polygon points="600,577.1 599.8,577.2 550.4,563.8 547.3,528.5 523.3,528.5 502.7,528.5 509,598.1 599.8,623.3 600,623.2" class="style2"/><path d="M455.842 200h22.536v22.266h20.615V200h22.538v67.426h-22.537v-22.578h-20.615v22.578h-22.536L455.842 200L455.842 200z"/><path d="M551.166 222.359h-19.84V200h62.227v22.359h-19.849v45.066h-22.537L551.166 222.359L551.166 222.359z"/><path d="M603.429 200h23.499l14.455 23.691L655.823 200h23.508v67.426h-22.443v-33.42l-15.505 23.974h-0.388l-15.516-23.974v33.42 h-22.051V200z"/><path d="M690.547 200h22.543v45.139h31.692v22.287h-54.235V200z"/><polygon points="599.8,461.9 599.8,506.3 654.5,506.3 649.3,563.8 599.8,577.1 599.8,623.3 690.8,598.1 691.4,590.6 701.8,473.8 702.9,461.9 691,461.9" class="style3"/><polygon points="599.8,372.2 599.8,399.7 599.8,416.4 599.8,416.5 706.8,416.5 706.8,416.5 707,416.5 707.9,406.6 709.9,384.1 710.9,372.2" class="style3"/></svg>