<svg xmlns="http://www.w3.org/2000/svg" xmlns:xlink="http://www.w3.org/1999/xlink" version="1.1" x="0px" y="0px" width="450.518px" height="500px" viewBox="0 0 450.518 500" enable-background="new 0 0 450.518 500" xml:space="preserve"><style>.style0{fill:	#007BA8;}.style1{fill:	#1EAEDB;}.style2{fill:	#38C8F5;}</style><g id="Layer_1"></g><g id="Layer_2"><g><polygon points="60.6,500 60.6,122.2 109.1,150.9 109.3,403.6 186.9,359.3 186.9,426.9" class="style0"/><polygon points="210.1,412.5 210.1,138.8 259.7,105.3 260,130.3 226.7,148.8 226.7,216.4 262.2,229.7 262.2,317.2 450.5,207.5 450.5,276.2" class="style0"/></g><polygon points="224.2,149.6 278.8,115.6 450.5,207.5 262.2,317.2 262.2,259.6 334.2,214.2" class="style1"/><polygon points="60.6,500 0,464.6 0,30.3 210.1,138.8 210.1,412.5 186.9,405 186.9,359.3 151.1,341.9 150.7,170.6 60.6,127.8" class="style2"/><polygon points="224.2,149.1 224.2,214.5 281.8,247.3 336.4,214.2" class="style2"/><polygon points="186.9,359.3 131.5,331.6 109.3,342.7 109.3,403.6" class="style1"/><polygon points="210.1,138.8 259.7,105.3 59.8,0 0,30.3" class="style1"/></g></svg>