<?xml version="1.0" encoding="utf-8"?>
<!-- Generator: Adobe Illustrator 16.0.4, SVG Export Plug-In . SVG Version: 6.00 Build 0)  -->
<!DOCTYPE svg PUBLIC "-//W3C//DTD SVG 1.1//EN" "http://www.w3.org/Graphics/SVG/1.1/DTD/svg11.dtd">
<svg version="1.1" id="Layer_1" xmlns="http://www.w3.org/2000/svg" xmlns:xlink="http://www.w3.org/1999/xlink" x="0px" y="0px"
	 width="500px" height="35px" viewBox="0 0 500 35" enable-background="new 0 0 500 35" xml:space="preserve" preserveAspectRatio="none">
<polyline fill="none" stroke="#666666" stroke-width="3" stroke-miterlimit="10" points="498.896,17.08 430.333,7.128 399.231,25.9 
	327.807,23.059 259.387,28.742 192.682,17.374 121.258,28.742 46.188,6.006 0.795,17.047 "/>
<circle fill="#666666" cx="46.079" cy="6.006" r="6.006"/>
<circle fill="#666666" cx="120.642" cy="28.475" r="6.006"/>
<circle fill="#666666" cx="192.494" cy="18.018" r="6.006"/>
<circle fill="#666666" cx="259.637" cy="28.475" r="6.006"/>
<circle fill="#666666" cx="327.939" cy="22.928" r="6.006"/>
<circle fill="#666666" cx="399.18" cy="25.555" r="6.006"/>
<circle fill="#666666" cx="430.473" cy="7.128" r="6.006"/>
<path fill="#666666" d="M0,11.234v12.012c3.316,0,6.006-2.689,6.006-6.006S3.316,11.234,0,11.234z"/>
<path fill="#666666" d="M493.994,17.24c0,3.316,2.689,6.006,6.006,6.006V11.234C496.684,11.234,493.994,13.924,493.994,17.24z"/>
</svg>
